<svg width="825" height="352" viewBox="0 0 825 352" fill="none" xmlns="http://www.w3.org/2000/svg">
<path d="M387.642 144.64C387.642 149.333 388.197 153.344 389.306 156.672C390.501 159.915 392.207 162.603 394.426 164.736C396.645 166.784 399.247 168.277 402.234 169.216C405.306 170.155 408.762 170.624 412.602 170.624C416.271 170.624 419.599 170.112 422.586 169.088C425.573 167.979 428.09 166.357 430.138 164.224C432.271 162.091 433.85 159.36 434.874 156.032C435.983 152.619 436.538 148.565 436.538 143.872V92.416C436.538 91.8187 436.325 91.3493 435.898 91.008C435.471 90.5813 434.831 90.24 433.978 89.984C433.125 89.728 432.058 89.5573 430.778 89.472C429.583 89.3013 428.175 89.216 426.554 89.216H423.866V85.12H453.434V89.216H452.026C450.405 89.216 448.826 89.472 447.29 89.984C445.839 90.496 444.645 91.3067 443.706 92.416C442.767 93.5253 442.298 95.0187 442.298 96.896V143.872C442.298 149.675 441.487 154.709 439.866 158.976C438.33 163.157 436.069 166.613 433.082 169.344C430.181 172.075 426.767 174.08 422.842 175.36C418.917 176.64 414.65 177.28 410.042 177.28C404.922 177.28 400.229 176.64 395.962 175.36C391.781 173.995 388.154 171.989 385.082 169.344C382.095 166.613 379.791 163.243 378.17 159.232C376.549 155.136 375.738 150.315 375.738 144.768V93.824C375.738 91.9467 374.714 90.7093 372.666 90.112C370.618 89.5147 368.186 89.216 365.37 89.216H364.474V85.12H398.778V89.216H397.626C396.517 89.216 395.365 89.2587 394.17 89.344C392.975 89.344 391.866 89.4293 390.842 89.6C389.903 89.6853 389.135 89.8133 388.538 89.984C387.941 90.0693 387.642 90.24 387.642 90.496V144.64ZM529.942 149.376V176H462.486V171.904H463.382C466.113 171.904 468.502 171.605 470.55 171.008C472.598 170.411 473.622 169.173 473.622 167.296V93.824C473.622 91.9467 472.598 90.7093 470.55 90.112C468.502 89.5147 466.113 89.216 463.382 89.216H462.486V85.12H527.126V108.544H522.646L520.342 96.896C520.086 95.1893 519.361 93.824 518.166 92.8C517.057 91.776 515.35 91.0507 513.046 90.624C510.827 90.1973 507.883 89.984 504.214 89.984H485.526V171.136H506.774C509.505 171.136 511.851 171.008 513.814 170.752C515.777 170.496 517.398 170.112 518.678 169.6C519.958 169.088 520.939 168.363 521.622 167.424C522.305 166.4 522.774 165.205 523.03 163.84L525.206 149.376H529.942ZM484.118 127.36C488.811 127.275 492.95 127.189 496.534 127.104C500.203 126.933 503.574 126.72 506.646 126.464C509.803 126.123 512.918 125.611 515.99 124.928V134.4C512.918 133.632 509.803 133.077 506.646 132.736C503.574 132.309 500.203 132.053 496.534 131.968C492.95 131.797 488.811 131.669 484.118 131.584V127.36ZM578.585 172.288C582.51 172.288 586.009 171.691 589.081 170.496C592.238 169.301 594.713 167.381 596.505 164.736C598.297 162.005 599.193 158.464 599.193 154.112C599.193 150.784 598.468 148.053 597.017 145.92C595.652 143.701 593.732 141.909 591.257 140.544C588.868 139.093 586.137 137.856 583.065 136.832C579.993 135.808 576.793 134.784 573.465 133.76C570.137 132.736 566.852 131.584 563.609 130.304C560.366 129.024 557.465 127.403 554.905 125.44C552.43 123.477 550.425 121.003 548.889 118.016C547.353 115.029 546.585 111.403 546.585 107.136C546.585 102.443 547.737 98.3893 550.041 94.976C552.43 91.4773 555.63 88.7467 559.641 86.784C563.737 84.8213 568.302 83.84 573.337 83.84C578.116 83.84 582.212 84.608 585.625 86.144C589.124 87.68 592.025 89.8133 594.329 92.544C596.718 95.2747 598.596 98.5173 599.961 102.272L595.609 98.432L597.017 85.12H602.137V108.544H597.145C596.292 104.533 594.798 101.035 592.665 98.048C590.532 95.0613 587.886 92.8 584.729 91.264C581.657 89.6427 578.158 88.832 574.233 88.832C570.308 88.832 566.98 89.472 564.249 90.752C561.604 92.032 559.556 93.8667 558.105 96.256C556.74 98.56 556.057 101.333 556.057 104.576C556.057 107.648 556.697 110.251 557.977 112.384C559.257 114.517 561.006 116.267 563.225 117.632C565.529 118.997 568.132 120.192 571.033 121.216C573.934 122.155 577.049 123.093 580.377 124.032C583.876 125.056 587.289 126.208 590.617 127.488C594.03 128.768 597.102 130.389 599.833 132.352C602.649 134.315 604.868 136.832 606.489 139.904C608.11 142.891 608.921 146.603 608.921 151.04C608.921 156.501 607.513 161.195 604.697 165.12C601.966 169.045 598.34 172.075 593.817 174.208C589.294 176.256 584.388 177.28 579.097 177.28C573.806 177.28 569.028 176.512 564.761 174.976C560.494 173.355 556.868 170.965 553.881 167.808C550.894 164.565 548.761 160.469 547.481 155.52L551.065 159.744L549.913 176H544.281V148.096H549.401C550.852 153.557 552.857 158.08 555.417 161.664C557.977 165.248 561.177 167.936 565.017 169.728C568.857 171.435 573.38 172.288 578.585 172.288ZM642.404 168.832C642.404 169.6 642.703 170.155 643.3 170.496C643.983 170.837 644.836 171.136 645.86 171.392C646.969 171.563 648.164 171.691 649.444 171.776C650.724 171.861 651.961 171.904 653.156 171.904H655.588V176H619.364V171.904H620.132C622.948 171.904 625.38 171.605 627.428 171.008C629.476 170.411 630.5 169.173 630.5 167.296V93.824C630.5 91.9467 629.476 90.7093 627.428 90.112C625.38 89.5147 622.948 89.216 620.132 89.216H619.364V85.12H655.588C665.743 85.12 673.764 87.3813 679.652 91.904C685.54 96.3413 688.484 102.613 688.484 110.72C688.484 116.096 687.076 120.789 684.26 124.8C681.529 128.811 677.647 131.925 672.612 134.144C667.577 136.277 661.689 137.344 654.948 137.344H638.564V132.608H654.692C659.385 132.608 663.311 131.755 666.468 130.048C669.625 128.256 671.972 125.781 673.508 122.624C675.129 119.381 675.94 115.456 675.94 110.848C675.94 106.24 675.129 102.4 673.508 99.328C671.972 96.256 669.668 93.952 666.596 92.416C663.609 90.7947 659.855 89.984 655.332 89.984H642.404V168.832ZM707.872 167.296V93.824C707.872 91.9467 706.848 90.7093 704.8 90.112C702.752 89.5147 700.363 89.216 697.632 89.216H696.736V85.12H731.04V89.216H730.144C727.413 89.216 724.981 89.5147 722.848 90.112C720.8 90.7093 719.776 91.9467 719.776 93.824V167.296C719.776 169.173 720.8 170.411 722.848 171.008C724.981 171.605 727.413 171.904 730.144 171.904H731.04V176H696.736V171.904H697.632C700.363 171.904 702.752 171.605 704.8 171.008C706.848 170.411 707.872 169.173 707.872 167.296Z" fill="#FFC508"/>
<path d="M307.861 193.216V189.12H346.005C353.173 189.12 359.701 190.187 365.589 192.32C371.562 194.368 376.682 197.355 380.949 201.28C385.301 205.205 388.672 209.984 391.061 215.616C393.45 221.163 394.645 227.392 394.645 234.304C394.645 241.216 393.45 247.488 391.061 253.12C388.672 258.667 385.301 263.488 380.949 267.584C376.682 271.595 371.562 274.667 365.589 276.8C359.701 278.933 353.173 280 346.005 280H307.861V275.904H308.757C311.573 275.904 314.005 275.605 316.053 275.008C318.101 274.411 319.125 273.173 319.125 271.296V197.824C319.125 195.947 318.101 194.709 316.053 194.112C314.005 193.515 311.573 193.216 308.757 193.216H307.861ZM346.005 193.984H330.901V275.136H346.005C351.381 275.136 356.245 274.197 360.597 272.32C365.034 270.443 368.832 267.755 371.989 264.256C375.146 260.757 377.578 256.491 379.285 251.456C380.992 246.421 381.845 240.704 381.845 234.304C381.845 227.904 380.992 222.187 379.285 217.152C377.578 212.117 375.146 207.893 371.989 204.48C368.832 201.067 365.034 198.464 360.597 196.672C356.245 194.88 351.381 193.984 346.005 193.984ZM415.872 271.296V197.824C415.872 195.947 414.848 194.709 412.8 194.112C410.752 193.515 408.363 193.216 405.632 193.216H404.736V189.12H439.04V193.216H438.144C435.413 193.216 432.981 193.515 430.848 194.112C428.8 194.709 427.776 195.947 427.776 197.824V271.296C427.776 273.173 428.8 274.411 430.848 275.008C432.981 275.605 435.413 275.904 438.144 275.904H439.04V280H404.736V275.904H405.632C408.363 275.904 410.752 275.605 412.8 275.008C414.848 274.411 415.872 273.173 415.872 271.296ZM530.278 243.648V266.304C529.083 267.669 527.334 269.248 525.03 271.04C522.726 272.747 519.995 274.368 516.838 275.904C513.766 277.44 510.395 278.72 506.726 279.744C503.142 280.768 499.345 281.28 495.334 281.28C488.422 281.28 482.15 280.171 476.518 277.952C470.886 275.733 466.022 272.576 461.926 268.48C457.83 264.299 454.673 259.349 452.454 253.632C450.321 247.915 449.254 241.557 449.254 234.56C449.254 227.733 450.406 221.461 452.71 215.744C455.014 210.027 458.214 205.077 462.31 200.896C466.491 196.715 471.313 193.515 476.774 191.296C482.321 188.992 488.209 187.84 494.438 187.84C499.643 187.84 504.294 188.651 508.39 190.272C512.486 191.893 515.985 194.155 518.886 197.056C521.873 199.957 524.177 203.499 525.798 207.68L521.574 204.608L523.494 189.12H528.742V215.232H523.494C522.214 210.965 520.294 207.168 517.734 203.84C515.259 200.512 512.102 197.867 508.262 195.904C504.507 193.856 499.899 192.832 494.438 192.832C489.915 192.832 485.649 193.856 481.638 195.904C477.713 197.867 474.257 200.683 471.27 204.352C468.369 207.936 466.107 212.288 464.486 217.408C462.865 222.528 462.054 228.245 462.054 234.56C462.054 240.875 462.822 246.635 464.358 251.84C465.894 256.96 468.07 261.355 470.886 265.024C473.787 268.608 477.286 271.381 481.382 273.344C485.563 275.307 490.257 276.288 495.462 276.288C499.729 276.288 503.398 275.776 506.47 274.752C509.542 273.728 512.102 272.576 514.15 271.296C516.283 270.016 517.819 268.907 518.758 267.968V243.648C518.758 241.771 517.649 240.533 515.43 239.936C513.297 239.339 510.609 239.04 507.366 239.04H506.47V235.584H538.982V239.04H538.214C536.507 239.04 534.758 239.339 532.966 239.936C531.174 240.533 530.278 241.771 530.278 243.648ZM559.997 271.296V197.824C559.997 195.947 558.973 194.709 556.925 194.112C554.877 193.515 552.488 193.216 549.757 193.216H548.861V189.12H583.165V193.216H582.269C579.538 193.216 577.106 193.515 574.973 194.112C572.925 194.709 571.901 195.947 571.901 197.824V271.296C571.901 273.173 572.925 274.411 574.973 275.008C577.106 275.605 579.538 275.904 582.269 275.904H583.165V280H548.861V275.904H549.757C552.488 275.904 554.877 275.605 556.925 275.008C558.973 274.411 559.997 273.173 559.997 271.296ZM622.435 271.296V193.984H614.499C610.915 193.984 607.971 194.197 605.667 194.624C603.363 195.051 601.656 195.776 600.547 196.8C599.438 197.739 598.67 199.104 598.243 200.896L596.067 212.672H591.843V189.12H664.803V212.672H660.707L658.403 200.896C658.062 199.104 657.294 197.739 656.099 196.8C654.99 195.776 653.283 195.051 650.979 194.624C648.76 194.197 645.816 193.984 642.147 193.984H634.339V271.296C634.339 273.173 635.363 274.411 637.411 275.008C639.544 275.605 641.934 275.904 644.579 275.904H646.627V280H610.019V275.904H612.067C614.883 275.904 617.315 275.605 619.363 275.008C621.411 274.411 622.435 273.173 622.435 271.296ZM685.909 243.136H723.285L723.413 247.872H684.245L685.909 243.136ZM702.165 195.008L705.237 195.904L678.357 272.96C678.357 273.472 678.613 273.941 679.125 274.368C679.637 274.795 680.49 275.179 681.685 275.52C682.965 275.776 684.672 275.904 686.805 275.904H690.133V280H663.765V275.904H664.661C666.709 275.904 668.586 275.349 670.293 274.24C672 273.045 673.28 271.168 674.133 268.608L702.165 189.12H711.637L740.949 271.68C741.632 273.472 742.656 274.624 744.021 275.136C745.472 275.648 747.136 275.904 749.013 275.904H749.653V280H718.165V275.904H720.213C721.749 275.904 723.242 275.861 724.693 275.776C726.229 275.605 727.509 275.435 728.533 275.264C729.557 275.008 730.069 274.752 730.069 274.496L702.165 195.008ZM789.415 189.12V193.216H788.263C785.959 193.216 783.698 193.344 781.479 193.6C779.26 193.856 778.151 194.325 778.151 195.008V275.136H796.455C800.124 275.136 803.068 274.923 805.287 274.496C807.591 273.984 809.34 273.216 810.535 272.192C811.73 271.083 812.455 269.632 812.711 267.84L815.015 251.456H819.751V280H755.111V275.904H756.007C758.738 275.904 761.127 275.605 763.175 275.008C765.223 274.411 766.247 273.173 766.247 271.296V197.824C766.247 195.947 765.223 194.709 763.175 194.112C761.127 193.515 758.738 193.216 756.007 193.216H755.111V189.12H789.415Z" fill="#FFC508"/>
<path fill-rule="evenodd" clip-rule="evenodd" d="M48.2751 0.183361C37.0134 0.458127 33.4414 1.00395 27.2332 3.39144C14.9504 8.12188 5.69743 18.2882 1.48311 31.6887L0.179823 35.8324L0.0387272 173.68C-0.0652385 277.014 0.0313004 312.392 0.436025 314.977C2.95719 331.177 17.0483 346.411 32.8585 350.031L37.4589 351.086L139.639 351.231C207.643 351.331 243.586 351.22 247.109 350.904C254.777 350.213 260.049 348.665 264.984 345.658C269.781 342.739 270.858 341.896 274.397 338.298C279.265 333.352 282.825 327.1 284.949 319.766L286 316.131V35.8324L284.946 32.4944C281.392 21.2475 274.085 11.549 265.125 6.17624C260.354 3.31718 257.64 2.28867 251.61 1.05964C246.905 0.101673 246.326 0.0942481 152.757 0.0125603C100.986 -0.0319955 53.9709 0.0459781 48.2751 0.183361ZM41.1423 17.0555C29.6838 18.6744 20.7019 26.65 18.151 37.4662C17.5347 40.0839 17.4493 56.3471 17.4456 176.023C17.4381 309.782 17.4493 311.661 18.3515 315.184C18.8528 317.149 19.9296 319.926 20.739 321.356C22.7181 324.846 27.6268 329.639 31.0168 331.396C37.0542 334.526 28.8632 334.31 143.151 334.31C215.897 334.31 247.284 334.162 249.2 333.809C258.824 332.031 266.414 324.163 268.489 313.807C269.154 310.499 269.213 297.154 269.098 174.37L268.972 38.5912L267.754 35.2643C265.979 30.4077 264.397 27.9459 260.699 24.2811C257.357 20.9728 254.428 19.2351 249.697 17.7498C247.562 17.0778 237.623 16.9998 144.93 16.933C88.6063 16.8921 41.8998 16.9478 41.1423 17.0555ZM141.139 47.2798C136.91 48.843 135.09 51.4941 135.057 56.154C135.038 58.6418 135.209 59.2061 136.442 60.7582C139.29 64.3376 143.719 65.4886 147.536 63.6395C153.949 60.5354 154.272 52.1216 148.127 48.2415C145.877 46.8194 143.333 46.4704 141.139 47.2798ZM108.167 57.2085C106.332 57.6727 104.617 58.8794 103.321 60.6134C101.918 62.4922 101.725 67.5308 102.965 69.9592C104.116 72.213 106.707 74.0584 109.637 74.7082C117.405 76.4347 123.509 67.8613 119.176 61.3189C116.881 57.8583 112.333 56.1577 108.167 57.2085ZM171.315 57.6949C168.463 59.1505 166.068 62.8412 166.001 65.8859C165.931 69.0086 167.078 71.4073 169.466 73.1116C171.203 74.3554 171.745 74.4928 174.887 74.4928C178.009 74.4928 178.589 74.348 180.356 73.1227C185.751 69.3836 186.152 62.4142 181.203 58.471C178.849 56.5959 174.189 56.2283 171.315 57.6949ZM83.9464 82.8546C79.2791 85.3201 77.7902 90.3476 80.3411 95.0372C84.0912 101.929 93.0657 102.292 96.3815 95.6907C98.9621 90.5481 96.6748 84.3027 91.5879 82.6096C89.3749 81.8707 85.5728 81.9932 83.9464 82.8546ZM193.95 82.7321C192.275 83.471 190.214 85.4872 189.212 87.3697C188.324 89.0406 188.257 93.3551 189.097 94.9815C190.04 96.812 192.438 99.1364 194.12 99.8419C197.503 101.271 202.738 100.235 205.081 97.6809C207.365 95.1894 207.885 89.8797 206.147 86.7867C203.967 82.914 198.023 80.9387 193.95 82.7321ZM139.653 84.4921C138.647 85.075 137.351 86.2558 136.776 87.1098L135.725 88.6693V203.622L132.654 201.015C123.68 193.404 113.343 188.543 97.0647 184.284C86.2597 181.455 69.2204 179.067 51.0376 177.835C47.1129 177.567 42.9134 177.259 41.703 177.148C38.0122 176.802 38.1496 176.494 38.1496 185.175V192.891L43.5595 193.203C46.5337 193.378 52.4857 193.712 56.7891 193.953C64.3304 194.376 66.3614 194.569 75.8928 195.765C89.4826 197.469 107.272 202.686 118.147 208.156C126.769 212.492 136.13 220.286 141.02 227.207C142.03 228.64 142.995 229.818 143.162 229.821C143.329 229.829 144.228 228.77 145.16 227.471C147.559 224.137 154.294 217.253 157.576 214.783C171.181 204.554 192.086 197.681 218.114 194.874C220.516 194.614 226.94 194.194 232.38 193.938C237.823 193.682 243.571 193.355 245.153 193.207L248.03 192.939V177.04L245.153 177.196C216.139 178.782 199.909 181.054 182.781 185.933C170.981 189.293 162.426 193.615 153.563 200.696L150.455 203.176V88.6693L149.419 87.1469C147.009 83.6047 143.036 82.5279 139.653 84.4921ZM115.403 94.5025C112.151 95.4865 109.333 98.4049 108.731 101.412C107.621 106.964 113.35 112.871 119.358 112.373C124.965 111.906 129.205 105.608 127.464 100.332C126.086 96.1622 119.867 93.1547 115.403 94.5025ZM164.821 94.547C161.07 95.6944 158.111 100.74 158.746 104.91C159.864 112.281 169.098 114.958 174.772 109.555C176.925 107.502 177.608 105.976 177.608 103.21C177.608 98.4309 173.877 94.6547 168.771 94.2686C167.431 94.1683 165.652 94.2908 164.821 94.547ZM80.4487 114.731C76.3792 116.955 74.4633 120.973 75.4213 125.265C76.1639 128.574 77.9536 130.53 81.1616 131.54C89.2227 134.073 96.4632 125.328 92.0558 118.381C90.2995 115.608 88.0457 114.267 84.741 114.022C82.7211 113.874 81.7186 114.037 80.4487 114.731ZM199.649 114.482C194.139 116.45 191.644 121.819 194.065 126.502C195.951 130.155 199.27 132.257 203.158 132.257C207.647 132.257 210.591 129.372 211.178 124.404C211.713 119.863 209.927 116.573 205.917 114.72C203.767 113.721 201.962 113.654 199.649 114.482ZM109.723 128.302C102.211 132.142 103.169 143.652 111.156 145.561C116.989 146.949 122.837 142.252 122.837 136.178C122.837 131.715 119.131 127.913 114.256 127.374C112.448 127.174 111.583 127.352 109.723 128.302ZM169.094 127.853C168.081 128.224 166.402 129.454 165.359 130.597C161.75 134.548 162.11 139.531 166.265 143.184C169.462 145.988 174.53 146.389 177.972 144.113C183.434 140.5 182.636 131.418 176.576 128.288C174.619 127.274 171.222 127.077 169.094 127.853ZM38.1496 236.074V244.469L53.4548 244.685C69.1165 244.907 74.7195 245.379 85.0678 247.351C94.5212 249.155 103.878 252.088 110.02 255.174C117.293 258.835 126.42 266.384 131.24 272.726C134.663 277.23 138.421 284.162 140.86 290.47C141.959 293.315 142.999 295.646 143.17 295.646C143.337 295.65 143.834 294.562 144.269 293.233C145.721 288.818 149.965 280.36 153.072 275.692C159.656 265.804 168.441 258.742 180.601 253.559C189.702 249.679 195.999 248.026 208.909 246.14C216.414 245.041 219.235 244.87 232.725 244.673L248.03 244.454V227.668L246.073 227.809C244.997 227.887 238.629 228.061 231.919 228.195C208.319 228.674 189.691 231.808 175.518 237.682C164.717 242.156 157.84 246.801 149.218 255.438L142.687 261.984L141.495 260.421C139.219 257.435 132.25 250.729 128.603 248.008C118.459 240.448 105.538 235.049 90.1584 231.941C79.8509 229.858 66.7364 228.544 52.8793 228.202C46.931 228.054 41.1831 227.879 40.1064 227.809L38.1496 227.682V236.074Z" fill="#FFC508"/>
</svg>
