<svg width="469" height="575" viewBox="0 0 469 575" fill="none" xmlns="http://www.w3.org/2000/svg">
<path fill-rule="evenodd" clip-rule="evenodd" d="M79.0231 0.30015C60.5884 0.749923 54.7414 1.64339 44.5789 5.55157C24.4728 13.295 9.32631 29.9366 2.42775 51.8722L0.294359 58.6553L0.0633938 284.302C-0.106791 453.454 0.0512366 511.365 0.713743 515.596C4.84073 542.114 27.9069 567.052 53.7871 572.978L61.3178 574.705L228.579 574.942C339.898 575.106 398.734 574.923 404.502 574.407C417.053 573.276 425.684 570.742 433.761 565.818C441.614 561.041 443.377 559.661 449.169 553.772C457.137 545.676 462.966 535.44 466.443 523.436L468.163 517.486V58.6553L466.437 53.1912C460.62 34.7808 448.659 18.905 433.992 10.1101C426.182 5.43001 421.739 3.74639 411.868 1.73457C404.167 0.166432 403.219 0.154278 250.053 0.0205604C165.307 -0.0523744 88.3468 0.0752631 79.0231 0.30015ZM67.3472 27.9187C48.5904 30.5687 33.8876 43.6244 29.712 61.3297C28.7031 65.6147 28.5633 92.2365 28.5572 288.137C28.545 507.092 28.5633 510.168 30.0402 515.936C30.8608 519.151 32.6234 523.698 33.9484 526.038C37.188 531.751 45.2232 539.598 50.7724 542.473C60.6553 547.596 47.2471 547.244 234.329 547.244C353.41 547.244 404.787 547.001 407.924 546.423C423.678 543.512 436.101 530.633 439.499 513.681C440.587 508.266 440.684 486.421 440.496 285.433L440.289 63.1713L438.296 57.7254C435.39 49.7753 432.801 45.7456 426.747 39.7466C421.277 34.331 416.481 31.4865 408.738 29.0553C405.243 27.9552 388.972 27.8276 237.24 27.7181C145.043 27.6513 68.5871 27.7425 67.3472 27.9187ZM231.035 77.3939C224.112 79.9528 221.134 84.2925 221.079 91.9204C221.048 95.9927 221.328 96.9165 223.346 99.4572C228.008 105.316 235.259 107.201 241.507 104.174C252.004 99.0925 252.533 85.3197 242.474 78.9681C238.79 76.6402 234.627 76.0689 231.035 77.3939ZM177.062 93.6466C174.059 94.4063 171.251 96.3817 169.13 99.2201C166.832 102.296 166.516 110.543 168.546 114.519C170.431 118.208 174.673 121.229 179.469 122.292C192.184 125.119 202.176 111.084 195.083 100.375C191.327 94.7102 183.881 91.9265 177.062 93.6466ZM280.431 94.4428C275.763 96.8254 271.843 102.867 271.733 107.851C271.618 112.963 273.496 116.889 277.404 119.679C280.248 121.715 281.136 121.94 286.278 121.94C291.39 121.94 292.338 121.703 295.231 119.697C304.062 113.576 304.719 102.168 296.617 95.7131C292.763 92.6437 285.135 92.042 280.431 94.4428ZM137.415 135.628C129.775 139.663 127.337 147.893 131.513 155.57C137.652 166.85 152.342 167.446 157.77 156.639C161.994 148.221 158.25 137.998 149.923 135.226C146.301 134.017 140.077 134.217 137.415 135.628ZM317.483 135.427C314.741 136.636 311.368 139.937 309.727 143.018C308.274 145.754 308.165 152.816 309.539 155.478C311.082 158.475 315.009 162.28 317.762 163.435C323.299 165.775 331.869 164.079 335.704 159.897C339.442 155.819 340.293 147.127 337.449 142.064C333.881 135.725 324.15 132.491 317.483 135.427ZM228.603 138.308C226.956 139.262 224.835 141.195 223.893 142.593L222.173 145.146V333.315L217.146 329.049C202.456 316.589 185.535 308.633 158.888 301.661C141.201 297.03 113.309 293.121 83.5452 291.104C77.1207 290.666 70.2464 290.161 68.265 289.979C62.2234 289.414 62.4483 288.909 62.4483 303.12V315.75L71.304 316.261C76.1725 316.546 85.9156 317.093 92.96 317.488C105.305 318.181 108.629 318.497 124.231 320.454C146.477 323.244 175.597 331.784 193.399 340.737C207.513 347.836 222.835 360.594 230.84 371.923C232.493 374.269 234.074 376.196 234.347 376.202C234.621 376.214 236.092 374.482 237.617 372.355C241.544 366.897 252.569 355.628 257.942 351.586C280.212 334.841 314.431 323.591 357.038 318.996C360.971 318.57 371.486 317.883 380.39 317.464C389.301 317.045 398.709 316.51 401.299 316.267L406.009 315.829V289.803L401.299 290.058C353.805 292.653 327.238 296.373 299.2 304.36C279.884 309.86 265.88 316.935 251.372 328.526L246.284 332.586V145.146L244.589 142.654C240.644 136.855 234.141 135.093 228.603 138.308ZM188.908 154.694C183.583 156.305 178.97 161.082 177.986 166.006C176.168 175.092 185.547 184.762 195.381 183.948C204.559 183.182 211.5 172.874 208.649 164.237C206.394 157.411 196.214 152.488 188.908 154.694ZM269.8 154.767C263.662 156.645 258.817 164.905 259.857 171.731C261.686 183.796 276.802 188.178 286.089 179.335C289.615 175.973 290.733 173.475 290.733 168.947C290.733 161.125 284.625 154.944 276.267 154.311C274.073 154.147 271.162 154.348 269.8 154.767ZM131.689 187.807C125.028 191.448 121.891 198.025 123.46 205.051C124.675 210.466 127.605 213.669 132.856 215.323C146.052 219.468 157.904 205.154 150.689 193.782C147.814 189.242 144.125 187.048 138.715 186.647C135.409 186.403 133.768 186.671 131.689 187.807ZM326.812 187.4C317.792 190.622 313.708 199.41 317.671 207.075C320.759 213.056 326.192 216.496 332.556 216.496C339.904 216.496 344.724 211.773 345.685 203.641C346.56 196.207 343.636 190.822 337.072 187.789C333.553 186.154 330.599 186.045 326.812 187.4ZM179.608 210.023C167.313 216.307 168.881 235.149 181.955 238.273C191.503 240.546 201.076 232.858 201.076 222.914C201.076 215.608 195.01 209.384 187.03 208.503C184.07 208.175 182.654 208.467 179.608 210.023ZM276.796 209.287C275.137 209.895 272.39 211.907 270.682 213.779C264.774 220.246 265.363 228.403 272.165 234.383C277.398 238.972 285.694 239.629 291.329 235.903C300.27 229.989 298.963 215.122 289.043 209.998C285.84 208.339 280.279 208.017 276.796 209.287ZM62.4483 386.437V400.18L87.502 400.532C113.139 400.897 122.311 401.669 139.25 404.896C154.725 407.85 170.042 412.652 180.095 417.703C192.002 423.696 206.941 436.052 214.831 446.434C220.435 453.806 226.586 465.154 230.579 475.481C232.378 480.136 234.08 483.953 234.359 483.953C234.633 483.959 235.447 482.179 236.158 480.003C238.535 472.776 245.482 458.93 250.569 451.29C261.346 435.104 275.726 423.544 295.632 415.059C310.529 408.707 320.838 406.003 341.971 402.915C354.255 401.116 358.874 400.836 380.955 400.514L406.009 400.156V372.677L402.806 372.908C401.043 373.035 390.619 373.321 379.636 373.54C341.004 374.324 310.511 379.454 287.311 389.069C269.63 396.393 258.374 403.997 244.26 418.134L233.569 428.85L231.618 426.291C227.892 421.404 216.484 410.427 210.515 405.972C193.91 393.597 172.758 384.76 147.583 379.673C130.711 376.263 109.243 374.111 86.5599 373.552C76.8229 373.309 67.4141 373.023 65.6514 372.908L62.4483 372.701V386.437Z" fill="#FFC508"/>
</svg>
