<svg width="513" height="215" viewBox="0 0 513 215" fill="none" xmlns="http://www.w3.org/2000/svg">
<path d="M96.642 61.64C96.642 66.3333 97.1967 70.344 98.306 73.672C99.5007 76.9147 101.207 79.6027 103.426 81.736C105.645 83.784 108.247 85.2773 111.234 86.216C114.306 87.1547 117.762 87.624 121.602 87.624C125.271 87.624 128.599 87.112 131.586 86.088C134.573 84.9787 137.09 83.3573 139.138 81.224C141.271 79.0907 142.85 76.36 143.874 73.032C144.983 69.6187 145.538 65.5653 145.538 60.872V9.41599C145.538 8.81866 145.325 8.34933 144.898 8.008C144.471 7.58133 143.831 7.24 142.978 6.98399C142.125 6.728 141.058 6.55733 139.778 6.47199C138.583 6.30133 137.175 6.216 135.554 6.216H132.866V2.12H162.434V6.216H161.026C159.405 6.216 157.826 6.472 156.29 6.98399C154.839 7.496 153.645 8.30666 152.706 9.41599C151.767 10.5253 151.298 12.0187 151.298 13.896V60.872C151.298 66.6747 150.487 71.7093 148.866 75.976C147.33 80.1573 145.069 83.6133 142.082 86.344C139.181 89.0747 135.767 91.08 131.842 92.36C127.917 93.64 123.65 94.28 119.042 94.28C113.922 94.28 109.229 93.64 104.962 92.36C100.781 90.9947 97.154 88.9893 94.082 86.344C91.0953 83.6133 88.7913 80.2427 87.17 76.232C85.5487 72.136 84.738 67.3147 84.738 61.768V10.824C84.738 8.94666 83.714 7.70933 81.666 7.112C79.618 6.51466 77.186 6.216 74.37 6.216H73.474V2.12H107.778V6.216H106.626C105.517 6.216 104.365 6.25866 103.17 6.34399C101.975 6.34399 100.866 6.42933 99.842 6.6C98.9033 6.68533 98.1353 6.81333 97.538 6.98399C96.9407 7.06933 96.642 7.24 96.642 7.49599V61.64ZM238.942 66.376V93H171.486V88.904H172.382C175.113 88.904 177.502 88.6053 179.55 88.008C181.598 87.4107 182.622 86.1733 182.622 84.296V10.824C182.622 8.94666 181.598 7.70933 179.55 7.112C177.502 6.51466 175.113 6.216 172.382 6.216H171.486V2.12H236.126V25.544H231.646L229.342 13.896C229.086 12.1893 228.361 10.824 227.166 9.8C226.057 8.77599 224.35 8.05066 222.046 7.62399C219.827 7.19733 216.883 6.98399 213.214 6.98399H194.526V88.136H215.774C218.505 88.136 220.851 88.008 222.814 87.752C224.777 87.496 226.398 87.112 227.678 86.6C228.958 86.088 229.939 85.3627 230.622 84.424C231.305 83.4 231.774 82.2053 232.03 80.84L234.206 66.376H238.942ZM193.118 44.36C197.811 44.2747 201.95 44.1893 205.534 44.104C209.203 43.9333 212.574 43.72 215.646 43.464C218.803 43.1227 221.918 42.6107 224.99 41.928V51.4C221.918 50.632 218.803 50.0773 215.646 49.736C212.574 49.3093 209.203 49.0533 205.534 48.968C201.95 48.7973 197.811 48.6693 193.118 48.584V44.36ZM287.585 89.288C291.51 89.288 295.009 88.6907 298.081 87.496C301.238 86.3013 303.713 84.3813 305.505 81.736C307.297 79.0053 308.193 75.464 308.193 71.112C308.193 67.784 307.468 65.0533 306.017 62.92C304.652 60.7013 302.732 58.9093 300.257 57.544C297.868 56.0933 295.137 54.856 292.065 53.832C288.993 52.808 285.793 51.784 282.465 50.76C279.137 49.736 275.852 48.584 272.609 47.304C269.366 46.024 266.465 44.4027 263.905 42.44C261.43 40.4773 259.425 38.0027 257.889 35.016C256.353 32.0293 255.585 28.4027 255.585 24.136C255.585 19.4427 256.737 15.3893 259.041 11.976C261.43 8.47733 264.63 5.74666 268.641 3.784C272.737 1.82133 277.302 0.839996 282.337 0.839996C287.116 0.839996 291.212 1.608 294.625 3.144C298.124 4.68 301.025 6.81333 303.329 9.544C305.718 12.2747 307.596 15.5173 308.961 19.272L304.609 15.432L306.017 2.12H311.137V25.544H306.145C305.292 21.5333 303.798 18.0347 301.665 15.048C299.532 12.0613 296.886 9.79999 293.729 8.26399C290.657 6.64266 287.158 5.83199 283.233 5.83199C279.308 5.83199 275.98 6.472 273.249 7.752C270.604 9.032 268.556 10.8667 267.105 13.256C265.74 15.56 265.057 18.3333 265.057 21.576C265.057 24.648 265.697 27.2507 266.977 29.384C268.257 31.5173 270.006 33.2667 272.225 34.632C274.529 35.9973 277.132 37.192 280.033 38.216C282.934 39.1547 286.049 40.0933 289.377 41.032C292.876 42.056 296.289 43.208 299.617 44.488C303.03 45.768 306.102 47.3893 308.833 49.352C311.649 51.3147 313.868 53.832 315.489 56.904C317.11 59.8907 317.921 63.6027 317.921 68.04C317.921 73.5013 316.513 78.1947 313.697 82.12C310.966 86.0453 307.34 89.0747 302.817 91.208C298.294 93.256 293.388 94.28 288.097 94.28C282.806 94.28 278.028 93.512 273.761 91.976C269.494 90.3547 265.868 87.9653 262.881 84.808C259.894 81.5653 257.761 77.4693 256.481 72.52L260.065 76.744L258.913 93H253.281V65.096H258.401C259.852 70.5573 261.857 75.08 264.417 78.664C266.977 82.248 270.177 84.936 274.017 86.728C277.857 88.4347 282.38 89.288 287.585 89.288ZM351.404 85.832C351.404 86.6 351.703 87.1547 352.3 87.496C352.983 87.8373 353.836 88.136 354.86 88.392C355.969 88.5627 357.164 88.6907 358.444 88.776C359.724 88.8613 360.961 88.904 362.156 88.904H364.588V93H328.364V88.904H329.132C331.948 88.904 334.38 88.6053 336.428 88.008C338.476 87.4107 339.5 86.1733 339.5 84.296V10.824C339.5 8.94666 338.476 7.70933 336.428 7.112C334.38 6.51466 331.948 6.216 329.132 6.216H328.364V2.12H364.588C374.743 2.12 382.764 4.38133 388.652 8.904C394.54 13.3413 397.484 19.6133 397.484 27.72C397.484 33.096 396.076 37.7893 393.26 41.8C390.529 45.8107 386.647 48.9253 381.612 51.144C376.577 53.2773 370.689 54.344 363.948 54.344H347.564V49.608H363.692C368.385 49.608 372.311 48.7547 375.468 47.048C378.625 45.256 380.972 42.7813 382.508 39.624C384.129 36.3813 384.94 32.456 384.94 27.848C384.94 23.24 384.129 19.4 382.508 16.328C380.972 13.256 378.668 10.952 375.596 9.41599C372.609 7.79466 368.855 6.98399 364.332 6.98399H351.404V85.832ZM416.872 84.296V10.824C416.872 8.94666 415.848 7.70933 413.8 7.112C411.752 6.51466 409.363 6.216 406.632 6.216H405.736V2.12H440.04V6.216H439.144C436.413 6.216 433.981 6.51466 431.848 7.112C429.8 7.70933 428.776 8.94666 428.776 10.824V84.296C428.776 86.1733 429.8 87.4107 431.848 88.008C433.981 88.6053 436.413 88.904 439.144 88.904H440.04V93H405.736V88.904H406.632C409.363 88.904 411.752 88.6053 413.8 88.008C415.848 87.4107 416.872 86.1733 416.872 84.296Z" fill="black"/>
<path d="M0.861 126.216V122.12H39.005C46.173 122.12 52.701 123.187 58.589 125.32C64.5623 127.368 69.6823 130.355 73.949 134.28C78.301 138.205 81.6717 142.984 84.061 148.616C86.4503 154.163 87.645 160.392 87.645 167.304C87.645 174.216 86.4503 180.488 84.061 186.12C81.6717 191.667 78.301 196.488 73.949 200.584C69.6823 204.595 64.5623 207.667 58.589 209.8C52.701 211.933 46.173 213 39.005 213H0.861V208.904H1.757C4.573 208.904 7.005 208.605 9.053 208.008C11.101 207.411 12.125 206.173 12.125 204.296V130.824C12.125 128.947 11.101 127.709 9.053 127.112C7.005 126.515 4.573 126.216 1.757 126.216H0.861ZM39.005 126.984H23.901V208.136H39.005C44.381 208.136 49.245 207.197 53.597 205.32C58.0343 203.443 61.8317 200.755 64.989 197.256C68.1463 193.757 70.5783 189.491 72.285 184.456C73.9917 179.421 74.845 173.704 74.845 167.304C74.845 160.904 73.9917 155.187 72.285 150.152C70.5783 145.117 68.1463 140.893 64.989 137.48C61.8317 134.067 58.0343 131.464 53.597 129.672C49.245 127.88 44.381 126.984 39.005 126.984ZM108.872 204.296V130.824C108.872 128.947 107.848 127.709 105.8 127.112C103.752 126.515 101.363 126.216 98.632 126.216H97.736V122.12H132.04V126.216H131.144C128.413 126.216 125.981 126.515 123.848 127.112C121.8 127.709 120.776 128.947 120.776 130.824V204.296C120.776 206.173 121.8 207.411 123.848 208.008C125.981 208.605 128.413 208.904 131.144 208.904H132.04V213H97.736V208.904H98.632C101.363 208.904 103.752 208.605 105.8 208.008C107.848 207.411 108.872 206.173 108.872 204.296ZM223.278 176.648V199.304C222.083 200.669 220.334 202.248 218.03 204.04C215.726 205.747 212.995 207.368 209.838 208.904C206.766 210.44 203.395 211.72 199.726 212.744C196.142 213.768 192.345 214.28 188.334 214.28C181.422 214.28 175.15 213.171 169.518 210.952C163.886 208.733 159.022 205.576 154.926 201.48C150.83 197.299 147.673 192.349 145.454 186.632C143.321 180.915 142.254 174.557 142.254 167.56C142.254 160.733 143.406 154.461 145.71 148.744C148.014 143.027 151.214 138.077 155.31 133.896C159.491 129.715 164.313 126.515 169.774 124.296C175.321 121.992 181.209 120.84 187.438 120.84C192.643 120.84 197.294 121.651 201.39 123.272C205.486 124.893 208.985 127.155 211.886 130.056C214.873 132.957 217.177 136.499 218.798 140.68L214.574 137.608L216.494 122.12H221.742V148.232H216.494C215.214 143.965 213.294 140.168 210.734 136.84C208.259 133.512 205.102 130.867 201.262 128.904C197.507 126.856 192.899 125.832 187.438 125.832C182.915 125.832 178.649 126.856 174.638 128.904C170.713 130.867 167.257 133.683 164.27 137.352C161.369 140.936 159.107 145.288 157.486 150.408C155.865 155.528 155.054 161.245 155.054 167.56C155.054 173.875 155.822 179.635 157.358 184.84C158.894 189.96 161.07 194.355 163.886 198.024C166.787 201.608 170.286 204.381 174.382 206.344C178.563 208.307 183.257 209.288 188.462 209.288C192.729 209.288 196.398 208.776 199.47 207.752C202.542 206.728 205.102 205.576 207.15 204.296C209.283 203.016 210.819 201.907 211.758 200.968V176.648C211.758 174.771 210.649 173.533 208.43 172.936C206.297 172.339 203.609 172.04 200.366 172.04H199.47V168.584H231.982V172.04H231.214C229.507 172.04 227.758 172.339 225.966 172.936C224.174 173.533 223.278 174.771 223.278 176.648ZM252.997 204.296V130.824C252.997 128.947 251.973 127.709 249.925 127.112C247.877 126.515 245.488 126.216 242.757 126.216H241.861V122.12H276.165V126.216H275.269C272.538 126.216 270.106 126.515 267.973 127.112C265.925 127.709 264.901 128.947 264.901 130.824V204.296C264.901 206.173 265.925 207.411 267.973 208.008C270.106 208.605 272.538 208.904 275.269 208.904H276.165V213H241.861V208.904H242.757C245.488 208.904 247.877 208.605 249.925 208.008C251.973 207.411 252.997 206.173 252.997 204.296ZM315.435 204.296V126.984H307.499C303.915 126.984 300.971 127.197 298.667 127.624C296.363 128.051 294.656 128.776 293.547 129.8C292.438 130.739 291.67 132.104 291.243 133.896L289.067 145.672H284.843V122.12H357.803V145.672H353.707L351.403 133.896C351.062 132.104 350.294 130.739 349.099 129.8C347.99 128.776 346.283 128.051 343.979 127.624C341.76 127.197 338.816 126.984 335.147 126.984H327.339V204.296C327.339 206.173 328.363 207.411 330.411 208.008C332.544 208.605 334.934 208.904 337.579 208.904H339.627V213H303.019V208.904H305.067C307.883 208.904 310.315 208.605 312.363 208.008C314.411 207.411 315.435 206.173 315.435 204.296ZM378.909 176.136H416.285L416.413 180.872H377.245L378.909 176.136ZM395.165 128.008L398.237 128.904L371.357 205.96C371.357 206.472 371.613 206.941 372.125 207.368C372.637 207.795 373.49 208.179 374.685 208.52C375.965 208.776 377.672 208.904 379.805 208.904H383.133V213H356.765V208.904H357.661C359.709 208.904 361.586 208.349 363.293 207.24C365 206.045 366.28 204.168 367.133 201.608L395.165 122.12H404.637L433.949 204.68C434.632 206.472 435.656 207.624 437.021 208.136C438.472 208.648 440.136 208.904 442.013 208.904H442.653V213H411.165V208.904H413.213C414.749 208.904 416.242 208.861 417.693 208.776C419.229 208.605 420.509 208.435 421.533 208.264C422.557 208.008 423.069 207.752 423.069 207.496L395.165 128.008ZM482.415 122.12V126.216H481.263C478.959 126.216 476.698 126.344 474.479 126.6C472.26 126.856 471.151 127.325 471.151 128.008V208.136H489.455C493.124 208.136 496.068 207.923 498.287 207.496C500.591 206.984 502.34 206.216 503.535 205.192C504.73 204.083 505.455 202.632 505.711 200.84L508.015 184.456H512.751V213H448.111V208.904H449.007C451.738 208.904 454.127 208.605 456.175 208.008C458.223 207.411 459.247 206.173 459.247 204.296V130.824C459.247 128.947 458.223 127.709 456.175 127.112C454.127 126.515 451.738 126.216 449.007 126.216H448.111V122.12H482.415Z" fill="#FFC508"/>
</svg>
